<mxfile host="Electron" modified="2023-09-19T07:11:05.218Z" agent="Mozilla/5.0 (Windows NT 10.0; Win64; x64) AppleWebKit/537.36 (KHTML, like Gecko) draw.io/21.6.8 Chrome/114.0.5735.289 Electron/25.5.0 Safari/537.36" etag="l6OF5Q0qB4MbVdjU5x7a" version="21.6.8" type="device">
  <diagram id="C5RBs43oDa-KdzZeNtuy" name="Page-1">
    <mxGraphModel dx="1292" dy="641" grid="1" gridSize="10" guides="1" tooltips="1" connect="1" arrows="1" fold="1" page="1" pageScale="1" pageWidth="827" pageHeight="1169" math="0" shadow="0">
      <root>
        <mxCell id="WIyWlLk6GJQsqaUBKTNV-0" />
        <mxCell id="WIyWlLk6GJQsqaUBKTNV-1" parent="WIyWlLk6GJQsqaUBKTNV-0" />
        <mxCell id="XMR_J0yOxIuvxakbu5Jo-6" value="&lt;font style=&quot;font-size: 16px;&quot;&gt;Service layer&lt;/font&gt;" style="rounded=1;whiteSpace=wrap;html=1;dashed=1;dashPattern=8 8;fillColor=#f5f5f5;strokeColor=#666666;labelBackgroundColor=none;labelBorderColor=none;gradientColor=#b3b3b3;verticalAlign=bottom;" parent="WIyWlLk6GJQsqaUBKTNV-1" vertex="1">
          <mxGeometry x="270" y="150" width="350" height="360" as="geometry" />
        </mxCell>
        <mxCell id="WIyWlLk6GJQsqaUBKTNV-3" value="Connector" style="rounded=1;whiteSpace=wrap;html=1;fontSize=12;glass=0;strokeWidth=1;shadow=0;fillColor=#dae8fc;gradientColor=#7ea6e0;strokeColor=#6c8ebf;" parent="WIyWlLk6GJQsqaUBKTNV-1" vertex="1">
          <mxGeometry x="430" y="160" width="120" height="40" as="geometry" />
        </mxCell>
        <mxCell id="WIyWlLk6GJQsqaUBKTNV-7" value="Analyzer" style="rounded=1;whiteSpace=wrap;html=1;fontSize=12;glass=0;strokeWidth=1;shadow=0;fillColor=#d5e8d4;gradientColor=#97d077;strokeColor=#82b366;" parent="WIyWlLk6GJQsqaUBKTNV-1" vertex="1">
          <mxGeometry x="430" y="240" width="120" height="40" as="geometry" />
        </mxCell>
        <mxCell id="WIyWlLk6GJQsqaUBKTNV-12" value="Optimizer" style="rounded=1;whiteSpace=wrap;html=1;fontSize=12;glass=0;strokeWidth=1;shadow=0;fillColor=#fff2cc;gradientColor=#ffd966;strokeColor=#d6b656;" parent="WIyWlLk6GJQsqaUBKTNV-1" vertex="1">
          <mxGeometry x="430" y="330" width="120" height="40" as="geometry" />
        </mxCell>
        <mxCell id="XMR_J0yOxIuvxakbu5Jo-1" value="" style="endArrow=classic;html=1;rounded=0;entryX=0.5;entryY=0;entryDx=0;entryDy=0;" parent="WIyWlLk6GJQsqaUBKTNV-1" target="WIyWlLk6GJQsqaUBKTNV-3" edge="1">
          <mxGeometry width="50" height="50" relative="1" as="geometry">
            <mxPoint x="490" y="110" as="sourcePoint" />
            <mxPoint x="650" y="420" as="targetPoint" />
          </mxGeometry>
        </mxCell>
        <mxCell id="XMR_J0yOxIuvxakbu5Jo-7" value="Actuator" style="rounded=1;whiteSpace=wrap;html=1;fontSize=12;glass=0;strokeWidth=1;shadow=0;fillColor=#f8cecc;gradientColor=#ea6b66;strokeColor=#b85450;" parent="WIyWlLk6GJQsqaUBKTNV-1" vertex="1">
          <mxGeometry x="430" y="420" width="120" height="40" as="geometry" />
        </mxCell>
        <mxCell id="XMR_J0yOxIuvxakbu5Jo-10" value="" style="endArrow=classic;html=1;rounded=0;exitX=0.5;exitY=1;exitDx=0;exitDy=0;entryX=0.5;entryY=0;entryDx=0;entryDy=0;" parent="WIyWlLk6GJQsqaUBKTNV-1" source="WIyWlLk6GJQsqaUBKTNV-12" target="XMR_J0yOxIuvxakbu5Jo-7" edge="1">
          <mxGeometry width="50" height="50" relative="1" as="geometry">
            <mxPoint x="610" y="420" as="sourcePoint" />
            <mxPoint x="660" y="370" as="targetPoint" />
          </mxGeometry>
        </mxCell>
        <mxCell id="XMR_J0yOxIuvxakbu5Jo-11" value="" style="endArrow=classic;html=1;rounded=0;exitX=0.5;exitY=1;exitDx=0;exitDy=0;entryX=0.5;entryY=0;entryDx=0;entryDy=0;" parent="WIyWlLk6GJQsqaUBKTNV-1" source="WIyWlLk6GJQsqaUBKTNV-3" target="WIyWlLk6GJQsqaUBKTNV-7" edge="1">
          <mxGeometry width="50" height="50" relative="1" as="geometry">
            <mxPoint x="610" y="420" as="sourcePoint" />
            <mxPoint x="660" y="370" as="targetPoint" />
          </mxGeometry>
        </mxCell>
        <mxCell id="XMR_J0yOxIuvxakbu5Jo-12" value="" style="endArrow=classic;html=1;rounded=0;exitX=0.5;exitY=1;exitDx=0;exitDy=0;" parent="WIyWlLk6GJQsqaUBKTNV-1" source="WIyWlLk6GJQsqaUBKTNV-7" edge="1">
          <mxGeometry width="50" height="50" relative="1" as="geometry">
            <mxPoint x="540" y="286.45161290322574" as="sourcePoint" />
            <mxPoint x="490" y="330" as="targetPoint" />
          </mxGeometry>
        </mxCell>
        <mxCell id="XMR_J0yOxIuvxakbu5Jo-16" value="Cache" style="image;sketch=0;aspect=fixed;html=1;points=[];align=center;fontSize=12;image=img/lib/mscae/Cache_Redis_Product.svg;labelBackgroundColor=none;" parent="WIyWlLk6GJQsqaUBKTNV-1" vertex="1">
          <mxGeometry x="310" y="240" width="47.62" height="40" as="geometry" />
        </mxCell>
        <mxCell id="XMR_J0yOxIuvxakbu5Jo-17" value="" style="endArrow=classic;html=1;rounded=0;exitX=0;exitY=0.5;exitDx=0;exitDy=0;" parent="WIyWlLk6GJQsqaUBKTNV-1" source="WIyWlLk6GJQsqaUBKTNV-7" target="XMR_J0yOxIuvxakbu5Jo-16" edge="1">
          <mxGeometry width="50" height="50" relative="1" as="geometry">
            <mxPoint x="430" y="310" as="sourcePoint" />
            <mxPoint x="480" y="260" as="targetPoint" />
          </mxGeometry>
        </mxCell>
        <mxCell id="XMR_J0yOxIuvxakbu5Jo-22" value="" style="shape=flexArrow;endArrow=classic;html=1;rounded=0;entryX=0.5;entryY=0;entryDx=0;entryDy=0;exitX=0.5;exitY=1;exitDx=0;exitDy=0;fillColor=#808080;strokeColor=none;gradientColor=#b3b3b3;" parent="WIyWlLk6GJQsqaUBKTNV-1" source="XMR_J0yOxIuvxakbu5Jo-6" target="XMR_J0yOxIuvxakbu5Jo-13" edge="1">
          <mxGeometry width="50" height="50" relative="1" as="geometry">
            <mxPoint x="450" y="520" as="sourcePoint" />
            <mxPoint x="500" y="470" as="targetPoint" />
          </mxGeometry>
        </mxCell>
        <mxCell id="_allxt7bcWxVUpoaqE6Q-0" value="Client" style="shape=umlActor;verticalLabelPosition=bottom;verticalAlign=top;html=1;outlineConnect=0;" vertex="1" parent="WIyWlLk6GJQsqaUBKTNV-1">
          <mxGeometry x="472.5" y="20" width="35" height="70" as="geometry" />
        </mxCell>
        <mxCell id="XMR_J0yOxIuvxakbu5Jo-13" value="&lt;font style=&quot;font-size: 16px;&quot;&gt;Storage Engine&lt;/font&gt;" style="rounded=1;whiteSpace=wrap;html=1;dashed=1;dashPattern=8 8;fillColor=#e6d0de;strokeColor=#996185;movable=1;resizable=1;rotatable=1;deletable=1;editable=1;locked=0;connectable=1;gradientColor=#d5739d;verticalAlign=bottom;" parent="WIyWlLk6GJQsqaUBKTNV-1" vertex="1">
          <mxGeometry x="270" y="560" width="350" height="110" as="geometry" />
        </mxCell>
        <mxCell id="XMR_J0yOxIuvxakbu5Jo-19" value="&lt;div style=&quot;-webkit-tap-highlight-color: transparent; font-family: &amp;quot;Google Sans&amp;quot;, Roboto, Arial, sans-serif; font-size: 14px; letter-spacing: 0.0875px;&quot; lang=&quot;en&quot; dir=&quot;ltr&quot;&gt;......&lt;/div&gt;" style="shape=datastore;whiteSpace=wrap;html=1;align=center;movable=1;resizable=1;rotatable=1;deletable=1;editable=1;locked=0;connectable=1;fillColor=#1ba1e2;strokeColor=#006EAF;labelBackgroundColor=none;fontColor=#333333;gradientColor=#66FFFF;" parent="WIyWlLk6GJQsqaUBKTNV-1" vertex="1">
          <mxGeometry x="530" y="580" width="60" height="60" as="geometry" />
        </mxCell>
        <mxCell id="_allxt7bcWxVUpoaqE6Q-2" value="&lt;div style=&quot;-webkit-tap-highlight-color: transparent; font-family: &amp;quot;Google Sans&amp;quot;, Roboto, Arial, sans-serif; font-size: 14px; letter-spacing: 0.0875px;&quot; lang=&quot;en&quot; dir=&quot;ltr&quot;&gt;MyISAM&lt;/div&gt;" style="shape=datastore;whiteSpace=wrap;html=1;align=center;movable=1;resizable=1;rotatable=1;deletable=1;editable=1;locked=0;connectable=1;fillColor=#1ba1e2;strokeColor=#006EAF;labelBackgroundColor=none;fontColor=#333333;gradientColor=#66FFFF;" vertex="1" parent="WIyWlLk6GJQsqaUBKTNV-1">
          <mxGeometry x="412.5" y="580" width="60" height="60" as="geometry" />
        </mxCell>
        <mxCell id="_allxt7bcWxVUpoaqE6Q-3" value="&lt;div style=&quot;-webkit-tap-highlight-color: transparent; font-family: &amp;quot;Google Sans&amp;quot;, Roboto, Arial, sans-serif; font-size: 14px; letter-spacing: 0.0875px;&quot; lang=&quot;en&quot; dir=&quot;ltr&quot;&gt;Innodb&lt;/div&gt;" style="shape=datastore;whiteSpace=wrap;html=1;align=center;movable=1;resizable=1;rotatable=1;deletable=1;editable=1;locked=0;connectable=1;fillColor=#1ba1e2;strokeColor=#006EAF;labelBackgroundColor=none;fontColor=#333333;gradientColor=#66FFFF;" vertex="1" parent="WIyWlLk6GJQsqaUBKTNV-1">
          <mxGeometry x="297.62" y="580" width="60" height="60" as="geometry" />
        </mxCell>
      </root>
    </mxGraphModel>
  </diagram>
</mxfile>
